<svg width="31" height="31" viewBox="0 0 31 31" fill="none" xmlns="http://www.w3.org/2000/svg">
<g clip-path="url(#clip0_6_6)">
<path d="M18.18 15.1C18.18 15.3533 18.0867 15.5733 17.9 15.76C17.7267 15.9333 17.5133 16.02 17.26 16.02H16.42C16.26 16.02 16.18 16.1067 16.18 16.28V17.1C16.18 17.3533 16.0867 17.5667 15.9 17.74C15.7267 17.9133 15.5133 18 15.26 18H14.72C14.4667 18 14.2467 17.9133 14.06 17.74C13.8867 17.5667 13.8 17.3533 13.8 17.1V16.28C13.8 16.1067 13.72 16.02 13.56 16.02H12.72C12.4667 16.02 12.2467 15.9333 12.06 15.76C11.8867 15.5733 11.8 15.3533 11.8 15.1V14.54C11.8 14.2867 11.8867 14.08 12.06 13.92C12.2467 13.7467 12.4667 13.66 12.72 13.66H13.56C13.6267 13.66 13.68 13.6333 13.72 13.58C13.7733 13.5133 13.8 13.4467 13.8 13.38V12.54C13.8 12.3 13.8867 12.0933 14.06 11.92C14.2467 11.7467 14.4667 11.66 14.72 11.66H15.26C15.5133 11.66 15.7267 11.7467 15.9 11.92C16.0867 12.0933 16.18 12.3 16.18 12.54V13.38C16.18 13.4467 16.2067 13.5133 16.26 13.58C16.3133 13.6333 16.3667 13.66 16.42 13.66H17.26C17.5133 13.66 17.7267 13.7467 17.9 13.92C18.0867 14.08 18.18 14.2867 18.18 14.54V15.1Z" fill="black"/>
</g>
<defs>
<clipPath id="clip0_6_6">
<rect width="31" height="31" fill="white"/>
</clipPath>
</defs>
</svg>
