<svg width="31" height="31" viewBox="0 0 31 31" fill="none" xmlns="http://www.w3.org/2000/svg">
<mask id="path-1-outside-1_2_2" maskUnits="userSpaceOnUse" x="0" y="0" width="31" height="31" fill="black">
<rect fill="white" width="31" height="31"/>
<path d="M0 5C0 2.23858 2.23858 0 5 0H25C27.7614 0 30 2.23858 30 5V25C30 27.7614 27.7614 30 25 30H5C2.23858 30 0 27.7614 0 25V5Z"/>
</mask>
<path d="M0 5C0 2.23858 2.23858 0 5 0H25C27.7614 0 30 2.23858 30 5V25C30 27.7614 27.7614 30 25 30H5C2.23858 30 0 27.7614 0 25V5Z" fill="#F2F2F2"/>
<path d="M0 0H30H0ZM31 25C31 28.3137 28.3137 31 25 31H6C2.68629 31 0 28.3137 0 25C0 27.2091 2.23858 29 5 29H25C27.2091 29 29 27.2091 29 25H31ZM0 30V0V30ZM25 0C28.3137 0 31 2.68629 31 6V25C31 28.3137 28.3137 31 25 31V29C27.2091 29 29 27.2091 29 25V5C29 2.23858 27.2091 0 25 0Z" fill="#BBBBBB" mask="url(#path-1-outside-1_2_2)"/>
<path d="M18.912 21.04C18.976 21.2853 18.9387 21.5093 18.8 21.712C18.6613 21.904 18.464 22 18.208 22H17.744C17.5947 22 17.4507 21.952 17.312 21.856C17.184 21.76 17.0933 21.6427 17.04 21.504L16.432 19.664C16.3893 19.5253 16.2987 19.456 16.16 19.456H13.424C13.2853 19.456 13.1947 19.5253 13.152 19.664L12.544 21.504C12.4907 21.6427 12.4 21.76 12.272 21.856C12.144 21.952 12 22 11.84 22H11.376C11.12 22 10.9227 21.904 10.784 21.712C10.6347 21.4987 10.6027 21.2747 10.688 21.04L13.792 11.68C13.8453 11.5307 13.9307 11.4133 14.048 11.328C14.176 11.232 14.3147 11.184 14.464 11.184H15.12C15.2693 11.184 15.408 11.232 15.536 11.328C15.664 11.4133 15.7493 11.5307 15.792 11.68L18.912 21.04ZM15.68 17.36L14.88 14.912C14.8267 14.8373 14.768 14.8373 14.704 14.912L13.904 17.36C13.8827 17.4133 13.888 17.4613 13.92 17.504C13.952 17.5467 13.9947 17.568 14.048 17.568H15.536C15.5893 17.568 15.632 17.5467 15.664 17.504C15.696 17.4613 15.7013 17.4133 15.68 17.36Z" fill="black"/>
</svg>
