<svg width="31" height="31" viewBox="0 0 31 31" fill="none" xmlns="http://www.w3.org/2000/svg">
<mask id="path-1-outside-1_2_2" maskUnits="userSpaceOnUse" x="0" y="0" width="31" height="31" fill="black">
<rect fill="white" width="31" height="31"/>
<path d="M0 5C0 2.23858 2.23858 0 5 0H25C27.7614 0 30 2.23858 30 5V25C30 27.7614 27.7614 30 25 30H5C2.23858 30 0 27.7614 0 25V5Z"/>
</mask>
<path d="M0 5C0 2.23858 2.23858 0 5 0H25C27.7614 0 30 2.23858 30 5V25C30 27.7614 27.7614 30 25 30H5C2.23858 30 0 27.7614 0 25V5Z" fill="#F2F2F2"/>
<path d="M0 0H30H0ZM31 25C31 28.3137 28.3137 31 25 31H6C2.68629 31 0 28.3137 0 25C0 27.2091 2.23858 29 5 29H25C27.2091 29 29 27.2091 29 25H31ZM0 30V0V30ZM25 0C28.3137 0 31 2.68629 31 6V25C31 28.3137 28.3137 31 25 31V29C27.2091 29 29 27.2091 29 25V5C29 2.23858 27.2091 0 25 0Z" fill="#BBBBBB" mask="url(#path-1-outside-1_2_2)"/>
<path d="M18.76 19.888C18.76 20.272 18.664 20.624 18.472 20.944C18.28 21.264 18.024 21.52 17.704 21.712C17.384 21.904 17.032 22 16.648 22H12.376C12.1733 22 11.9973 21.9307 11.848 21.792C11.7093 21.6427 11.64 21.4667 11.64 21.264V11.92C11.64 11.7067 11.7093 11.5307 11.848 11.392C11.9973 11.2533 12.1733 11.184 12.376 11.184H16.648C17.032 11.184 17.384 11.28 17.704 11.472C18.024 11.664 18.28 11.92 18.472 12.24C18.664 12.56 18.76 12.9173 18.76 13.312V19.888ZM16.856 19.888V13.312C16.856 13.1627 16.7867 13.088 16.648 13.088H13.768C13.6293 13.088 13.56 13.1573 13.56 13.296V19.904C13.56 20.0427 13.6293 20.112 13.768 20.112H16.648C16.7013 20.112 16.7493 20.0907 16.792 20.048C16.8347 19.9947 16.856 19.9413 16.856 19.888Z" fill="black"/>
</svg>
