<svg width="31" height="31" viewBox="0 0 31 31" fill="none" xmlns="http://www.w3.org/2000/svg">
<mask id="path-1-outside-1_2_2" maskUnits="userSpaceOnUse" x="0" y="0" width="31" height="31" fill="black">
<rect fill="white" width="31" height="31"/>
<path d="M0 5C0 2.23858 2.23858 0 5 0H25C27.7614 0 30 2.23858 30 5V25C30 27.7614 27.7614 30 25 30H5C2.23858 30 0 27.7614 0 25V5Z"/>
</mask>
<path d="M0 5C0 2.23858 2.23858 0 5 0H25C27.7614 0 30 2.23858 30 5V25C30 27.7614 27.7614 30 25 30H5C2.23858 30 0 27.7614 0 25V5Z" fill="#F2F2F2"/>
<path d="M0 0H30H0ZM31 25C31 28.3137 28.3137 31 25 31H6C2.68629 31 0 28.3137 0 25C0 27.2091 2.23858 29 5 29H25C27.2091 29 29 27.2091 29 25H31ZM0 30V0V30ZM25 0C28.3137 0 31 2.68629 31 6V25C31 28.3137 28.3137 31 25 31V29C27.2091 29 29 27.2091 29 25V5C29 2.23858 27.2091 0 25 0Z" fill="#BBBBBB" mask="url(#path-1-outside-1_2_2)"/>
<path d="M16.56 21.264C16.56 21.4667 16.4853 21.6427 16.336 21.792C16.1973 21.9307 16.0267 22 15.824 22H15.392C15.1893 22 15.0133 21.9307 14.864 21.792C14.7253 21.6427 14.656 21.4667 14.656 21.264V11.92C14.656 11.7067 14.7253 11.5307 14.864 11.392C15.0133 11.2533 15.1893 11.184 15.392 11.184H15.824C16.0267 11.184 16.1973 11.2533 16.336 11.392C16.4853 11.5307 16.56 11.7067 16.56 11.92V21.264Z" fill="black"/>
</svg>
