<svg width="31" height="31" viewBox="0 0 31 31" fill="none" xmlns="http://www.w3.org/2000/svg">
<mask id="path-1-outside-1_2_2" maskUnits="userSpaceOnUse" x="0" y="0" width="31" height="31" fill="black">
<rect fill="white" width="31" height="31"/>
<path d="M0 5C0 2.23858 2.23858 0 5 0H25C27.7614 0 30 2.23858 30 5V25C30 27.7614 27.7614 30 25 30H5C2.23858 30 0 27.7614 0 25V5Z"/>
</mask>
<path d="M0 5C0 2.23858 2.23858 0 5 0H25C27.7614 0 30 2.23858 30 5V25C30 27.7614 27.7614 30 25 30H5C2.23858 30 0 27.7614 0 25V5Z" fill="#F2F2F2"/>
<path d="M0 0H30H0ZM31 25C31 28.3137 28.3137 31 25 31H6C2.68629 31 0 28.3137 0 25C0 27.2091 2.23858 29 5 29H25C27.2091 29 29 27.2091 29 25H31ZM0 30V0V30ZM25 0C28.3137 0 31 2.68629 31 6V25C31 28.3137 28.3137 31 25 31V29C27.2091 29 29 27.2091 29 25V5C29 2.23858 27.2091 0 25 0Z" fill="#BBBBBB" mask="url(#path-1-outside-1_2_2)"/>
<path d="M17.76 19.888C17.76 20.272 17.664 20.624 17.472 20.944C17.28 21.264 17.024 21.52 16.704 21.712C16.384 21.904 16.032 22 15.648 22H12.768C12.384 22 12.0267 21.904 11.696 21.712C11.376 21.52 11.12 21.264 10.928 20.944C10.736 20.624 10.64 20.272 10.64 19.888V18.736C10.64 18.5333 10.7093 18.3627 10.848 18.224C10.9973 18.0747 11.1733 18 11.376 18H11.824C12.0267 18 12.1973 18.0747 12.336 18.224C12.4853 18.3627 12.56 18.5333 12.56 18.736V19.888C12.56 19.9413 12.5813 19.9947 12.624 20.048C12.6667 20.0907 12.7147 20.112 12.768 20.112H15.648C15.7013 20.112 15.7493 20.0907 15.792 20.048C15.8347 19.9947 15.856 19.9413 15.856 19.888V11.92C15.856 11.7067 15.9253 11.5307 16.064 11.392C16.2133 11.2533 16.3893 11.184 16.592 11.184H17.024C17.2373 11.184 17.4133 11.2533 17.552 11.392C17.6907 11.5307 17.76 11.7067 17.76 11.92V19.888Z" fill="black"/>
</svg>
