<svg width="31" height="31" viewBox="0 0 31 31" fill="none" xmlns="http://www.w3.org/2000/svg">
<mask id="path-1-outside-1_2_2" maskUnits="userSpaceOnUse" x="0" y="0" width="31" height="31" fill="black">
<rect fill="white" width="31" height="31"/>
<path d="M0 5C0 2.23858 2.23858 0 5 0H25C27.7614 0 30 2.23858 30 5V25C30 27.7614 27.7614 30 25 30H5C2.23858 30 0 27.7614 0 25V5Z"/>
</mask>
<path d="M0 5C0 2.23858 2.23858 0 5 0H25C27.7614 0 30 2.23858 30 5V25C30 27.7614 27.7614 30 25 30H5C2.23858 30 0 27.7614 0 25V5Z" fill="#F2F2F2"/>
<path d="M0 0H30H0ZM31 25C31 28.3137 28.3137 31 25 31H6C2.68629 31 0 28.3137 0 25C0 27.2091 2.23858 29 5 29H25C27.2091 29 29 27.2091 29 25H31ZM0 30V0V30ZM25 0C28.3137 0 31 2.68629 31 6V25C31 28.3137 28.3137 31 25 31V29C27.2091 29 29 27.2091 29 25V5C29 2.23858 27.2091 0 25 0Z" fill="#BBBBBB" mask="url(#path-1-outside-1_2_2)"/>
<path d="M18.52 11.616C18.5733 11.744 18.5893 11.8827 18.568 12.032C18.5573 12.1707 18.4987 12.2987 18.392 12.416L14.728 16.448C14.632 16.544 14.632 16.6453 14.728 16.752L18.392 20.768C18.4987 20.8747 18.5573 21.0027 18.568 21.152C18.5893 21.2907 18.5733 21.424 18.52 21.552C18.4667 21.6907 18.376 21.8027 18.248 21.888C18.1307 21.9627 18.0027 22 17.864 22H17.256C17.064 22 16.888 21.92 16.728 21.76L13.704 18.432C13.6827 18.4 13.6507 18.3947 13.608 18.416C13.576 18.4267 13.56 18.448 13.56 18.48V21.264C13.56 21.4667 13.4853 21.6427 13.336 21.792C13.1973 21.9307 13.0267 22 12.824 22H12.376C12.1733 22 12.0027 21.9307 11.864 21.792C11.7253 21.6427 11.656 21.4667 11.656 21.264V11.92C11.656 11.7067 11.7253 11.5307 11.864 11.392C12.0027 11.2533 12.1733 11.184 12.376 11.184H12.824C13.0267 11.184 13.1973 11.2533 13.336 11.392C13.4853 11.5307 13.56 11.7067 13.56 11.92V14.688C13.56 14.7307 13.576 14.7573 13.608 14.768C13.6507 14.7787 13.6827 14.7733 13.704 14.752L16.728 11.424C16.888 11.264 17.0693 11.184 17.272 11.184H17.864C18.1733 11.184 18.392 11.328 18.52 11.616Z" fill="black"/>
</svg>
