<svg width="31" height="31" viewBox="0 0 31 31" fill="none" xmlns="http://www.w3.org/2000/svg">
<mask id="path-1-outside-1_2_2" maskUnits="userSpaceOnUse" x="0" y="0" width="31" height="31" fill="black">
<rect fill="white" width="31" height="31"/>
<path d="M0 5C0 2.23858 2.23858 0 5 0H25C27.7614 0 30 2.23858 30 5V25C30 27.7614 27.7614 30 25 30H5C2.23858 30 0 27.7614 0 25V5Z"/>
</mask>
<path d="M0 5C0 2.23858 2.23858 0 5 0H25C27.7614 0 30 2.23858 30 5V25C30 27.7614 27.7614 30 25 30H5C2.23858 30 0 27.7614 0 25V5Z" fill="#F2F2F2"/>
<path d="M0 0H30H0ZM31 25C31 28.3137 28.3137 31 25 31H6C2.68629 31 0 28.3137 0 25C0 27.2091 2.23858 29 5 29H25C27.2091 29 29 27.2091 29 25H31ZM0 30V0V30ZM25 0C28.3137 0 31 2.68629 31 6V25C31 28.3137 28.3137 31 25 31V29C27.2091 29 29 27.2091 29 25V5C29 2.23858 27.2091 0 25 0Z" fill="#BBBBBB" mask="url(#path-1-outside-1_2_2)"/>
<path d="M18.584 21.264C18.584 21.4667 18.5093 21.6427 18.36 21.792C18.2213 21.9307 18.056 22 17.864 22H12.36C12.168 22 11.9973 21.9307 11.848 21.792C11.7093 21.6427 11.64 21.4667 11.64 21.264V11.92C11.64 11.7067 11.7093 11.5307 11.848 11.392C11.9973 11.2533 12.168 11.184 12.36 11.184H12.808C13.0107 11.184 13.1813 11.2533 13.32 11.392C13.4693 11.5307 13.544 11.7067 13.544 11.92V19.904C13.544 20.0427 13.608 20.112 13.736 20.112H17.864C18.056 20.112 18.2213 20.1813 18.36 20.32C18.5093 20.4587 18.584 20.6347 18.584 20.848V21.264Z" fill="black"/>
</svg>
