<svg width="31" height="31" viewBox="0 0 31 31" fill="none" xmlns="http://www.w3.org/2000/svg">
<mask id="path-1-outside-1_2_2" maskUnits="userSpaceOnUse" x="0" y="0" width="31" height="31" fill="black">
<rect fill="white" width="31" height="31"/>
<path d="M0 5C0 2.23858 2.23858 0 5 0H25C27.7614 0 30 2.23858 30 5V25C30 27.7614 27.7614 30 25 30H5C2.23858 30 0 27.7614 0 25V5Z"/>
</mask>
<path d="M0 5C0 2.23858 2.23858 0 5 0H25C27.7614 0 30 2.23858 30 5V25C30 27.7614 27.7614 30 25 30H5C2.23858 30 0 27.7614 0 25V5Z" fill="#F2F2F2"/>
<path d="M0 0H30H0ZM31 25C31 28.3137 28.3137 31 25 31H6C2.68629 31 0 28.3137 0 25C0 27.2091 2.23858 29 5 29H25C27.2091 29 29 27.2091 29 25H31ZM0 30V0V30ZM25 0C28.3137 0 31 2.68629 31 6V25C31 28.3137 28.3137 31 25 31V29C27.2091 29 29 27.2091 29 25V5C29 2.23858 27.2091 0 25 0Z" fill="#BBBBBB" mask="url(#path-1-outside-1_2_2)"/>
<path d="M18.968 19.888C18.968 20.272 18.872 20.624 18.68 20.944C18.488 21.264 18.232 21.52 17.912 21.712C17.592 21.904 17.24 22 16.856 22H13.784C13.4 22 13.0427 21.904 12.712 21.712C12.392 21.52 12.136 21.264 11.944 20.944C11.752 20.624 11.656 20.272 11.656 19.888V13.312C11.656 12.9173 11.752 12.56 11.944 12.24C12.136 11.92 12.392 11.664 12.712 11.472C13.0427 11.28 13.4 11.184 13.784 11.184H16.856C17.24 11.184 17.592 11.28 17.912 11.472C18.232 11.664 18.488 11.92 18.68 12.24C18.872 12.56 18.968 12.9173 18.968 13.312V19.888ZM17.064 19.888V13.312C17.064 13.1627 16.9947 13.088 16.856 13.088H13.784C13.7307 13.088 13.6773 13.1093 13.624 13.152C13.5813 13.1947 13.56 13.248 13.56 13.312V19.888C13.56 19.9413 13.5813 19.9947 13.624 20.048C13.6773 20.0907 13.7307 20.112 13.784 20.112H16.856C16.9093 20.112 16.9573 20.0907 17 20.048C17.0427 19.9947 17.064 19.9413 17.064 19.888Z" fill="black"/>
</svg>
