<svg width="31" height="31" viewBox="0 0 31 31" fill="none" xmlns="http://www.w3.org/2000/svg">
<path d="M15.628 17.432C15.628 17.8707 15.474 18.244 15.166 18.552C14.8673 18.8507 14.5033 19 14.074 19H12.128C11.6987 19 11.33 18.8507 11.022 18.552C10.714 18.244 10.56 17.8707 10.56 17.432V13.316C10.56 13.0267 10.63 12.7653 10.77 12.532C10.9193 12.2893 11.1107 12.098 11.344 11.958C11.5773 11.818 11.8387 11.748 12.128 11.748H14.074C14.3633 11.748 14.6247 11.818 14.858 11.958C15.0913 12.098 15.278 12.2893 15.418 12.532C15.558 12.7653 15.628 13.0267 15.628 13.316V17.432ZM13.976 17.166V13.61C13.976 13.554 13.9527 13.5073 13.906 13.47C13.8687 13.4327 13.8267 13.414 13.78 13.414H12.422C12.3753 13.414 12.3287 13.4327 12.282 13.47C12.2447 13.5073 12.226 13.554 12.226 13.61V17.166C12.226 17.2127 12.2447 17.2547 12.282 17.292C12.3287 17.3293 12.3753 17.348 12.422 17.348H13.78C13.8267 17.348 13.8687 17.3293 13.906 17.292C13.9527 17.2547 13.976 17.2127 13.976 17.166ZM20.925 12.784C20.925 12.9613 20.8644 13.1107 20.743 13.232C20.6217 13.3533 20.4724 13.414 20.295 13.414H18.629C18.5077 13.414 18.447 13.4793 18.447 13.61V18.356C18.447 18.5333 18.3817 18.6873 18.251 18.818C18.1297 18.9393 17.9804 19 17.803 19H17.411C17.2337 19 17.0844 18.9393 16.963 18.818C16.8417 18.6873 16.781 18.5333 16.781 18.356V13.316C16.781 13.0267 16.851 12.7653 16.991 12.532C17.131 12.2893 17.3177 12.098 17.551 11.958C17.7844 11.818 18.0457 11.748 18.335 11.748H20.295C20.4724 11.748 20.6217 11.8133 20.743 11.944C20.8644 12.0653 20.925 12.2193 20.925 12.406V12.784Z" fill="black"/>
</svg>
