<svg width="18" height="31" viewBox="0 0 18 31" fill="none" xmlns="http://www.w3.org/2000/svg">
<g clip-path="url(#clip0_6_6)">
<path d="M12.18 15.1C12.18 15.3533 12.0867 15.5733 11.9 15.76C11.7267 15.9333 11.5133 16.02 11.26 16.02H10.42C10.26 16.02 10.18 16.1067 10.18 16.28V17.1C10.18 17.3533 10.0867 17.5667 9.9 17.74C9.72667 17.9133 9.51333 18 9.26 18H8.72C8.46667 18 8.24667 17.9133 8.06 17.74C7.88667 17.5667 7.8 17.3533 7.8 17.1V16.28C7.8 16.1067 7.72 16.02 7.56 16.02H6.72C6.46667 16.02 6.24667 15.9333 6.06 15.76C5.88667 15.5733 5.8 15.3533 5.8 15.1V14.54C5.8 14.2867 5.88667 14.08 6.06 13.92C6.24667 13.7467 6.46667 13.66 6.72 13.66H7.56C7.62667 13.66 7.68 13.6333 7.72 13.58C7.77333 13.5133 7.8 13.4467 7.8 13.38V12.54C7.8 12.3 7.88667 12.0933 8.06 11.92C8.24667 11.7467 8.46667 11.66 8.72 11.66H9.26C9.51333 11.66 9.72667 11.7467 9.9 11.92C10.0867 12.0933 10.18 12.3 10.18 12.54V13.38C10.18 13.4467 10.2067 13.5133 10.26 13.58C10.3133 13.6333 10.3667 13.66 10.42 13.66H11.26C11.5133 13.66 11.7267 13.7467 11.9 13.92C12.0867 14.08 12.18 14.2867 12.18 14.54V15.1Z" fill="black"/>
</g>
<defs>
<clipPath id="clip0_6_6">
<rect width="18" height="31" fill="white"/>
</clipPath>
</defs>
</svg>
