<svg width="43" height="31" viewBox="0 0 43 31" fill="none" xmlns="http://www.w3.org/2000/svg">
<mask id="path-1-outside-1_4_10" maskUnits="userSpaceOnUse" x="0" y="0" width="43" height="31" fill="black">
<rect fill="white" width="43" height="31"/>
<path d="M0 5C0 2.23858 2.23858 0 5 0H37C39.7614 0 42 2.23858 42 5V25C42 27.7614 39.7614 30 37 30H5C2.23858 30 0 27.7614 0 25V5Z"/>
</mask>
<path d="M0 5C0 2.23858 2.23858 0 5 0H37C39.7614 0 42 2.23858 42 5V25C42 27.7614 39.7614 30 37 30H5C2.23858 30 0 27.7614 0 25V5Z" fill="#F2F2F2"/>
<path d="M0 0H42H0ZM43 25C43 28.3137 40.3137 31 37 31H6C2.68629 31 0 28.3137 0 25C0 27.2091 2.23858 29 5 29H37C39.2091 29 41 27.2091 41 25H43ZM0 30V0V30ZM37 0C40.3137 0 43 2.68629 43 6V25C43 28.3137 40.3137 31 37 31V29C39.2091 29 41 27.2091 41 25V5C41 2.23858 39.2091 0 37 0Z" fill="#BBBBBB" mask="url(#path-1-outside-1_4_10)"/>
<path d="M18.968 19.888C18.968 20.272 18.872 20.624 18.68 20.944C18.488 21.264 18.232 21.52 17.912 21.712C17.592 21.904 17.24 22 16.856 22H13.784C13.4 22 13.0427 21.904 12.712 21.712C12.392 21.52 12.136 21.264 11.944 20.944C11.752 20.624 11.656 20.272 11.656 19.888V19.408C11.656 19.2053 11.7253 19.0347 11.864 18.896C12.0133 18.7467 12.1893 18.672 12.392 18.672H12.84C13.032 18.672 13.1973 18.7467 13.336 18.896C13.4853 19.0347 13.56 19.2053 13.56 19.408V19.888C13.56 19.9413 13.5813 19.9947 13.624 20.048C13.6773 20.0907 13.7307 20.112 13.784 20.112H16.856C16.9093 20.112 16.9573 20.0907 17 20.048C17.0427 19.9947 17.064 19.9413 17.064 19.888V18.432C17.064 18.3147 17.0107 18.24 16.904 18.208L13.064 16.768C12.6373 16.6187 12.296 16.3573 12.04 15.984C11.784 15.6107 11.656 15.2 11.656 14.752V13.312C11.656 12.9173 11.752 12.56 11.944 12.24C12.136 11.92 12.392 11.664 12.712 11.472C13.0427 11.28 13.4 11.184 13.784 11.184H16.856C17.24 11.184 17.592 11.28 17.912 11.472C18.232 11.664 18.488 11.92 18.68 12.24C18.872 12.56 18.968 12.9173 18.968 13.312V13.744C18.968 13.9467 18.8933 14.1173 18.744 14.256C18.6053 14.3947 18.4347 14.464 18.232 14.464H17.8C17.5973 14.464 17.4213 14.3947 17.272 14.256C17.1333 14.1173 17.064 13.9467 17.064 13.744V13.312C17.064 13.1627 16.9947 13.088 16.856 13.088H13.784C13.7307 13.088 13.6773 13.1093 13.624 13.152C13.5813 13.1947 13.56 13.248 13.56 13.312V14.752C13.56 14.88 13.6133 14.96 13.72 14.992L17.576 16.432C17.992 16.5813 18.328 16.8427 18.584 17.216C18.84 17.5893 18.968 17.9947 18.968 18.432V19.888ZM31.0725 19.888C31.0725 20.272 30.9765 20.624 30.7845 20.944C30.5925 21.264 30.3365 21.52 30.0165 21.712C29.6965 21.904 29.3445 22 28.9605 22H24.6885C24.4858 22 24.3098 21.9307 24.1605 21.792C24.0218 21.6427 23.9525 21.4667 23.9525 21.264V11.92C23.9525 11.7067 24.0218 11.5307 24.1605 11.392C24.3098 11.2533 24.4858 11.184 24.6885 11.184H28.9605C29.3445 11.184 29.6965 11.28 30.0165 11.472C30.3365 11.664 30.5925 11.92 30.7845 12.24C30.9765 12.56 31.0725 12.9173 31.0725 13.312V19.888ZM29.1685 19.888V13.312C29.1685 13.1627 29.0992 13.088 28.9605 13.088H26.0805C25.9418 13.088 25.8725 13.1573 25.8725 13.296V19.904C25.8725 20.0427 25.9418 20.112 26.0805 20.112H28.9605C29.0138 20.112 29.0618 20.0907 29.1045 20.048C29.1472 19.9947 29.1685 19.9413 29.1685 19.888Z" fill="black"/>
</svg>
