<svg width="31" height="31" viewBox="0 0 31 31" fill="none" xmlns="http://www.w3.org/2000/svg">
<g clip-path="url(#clip0_2_2)">
<mask id="path-1-outside-1_2_2" maskUnits="userSpaceOnUse" x="0" y="0" width="31" height="31" fill="black">
<rect fill="white" width="31" height="31"/>
<path d="M0 5C0 2.23858 2.23858 0 5 0H25C27.7614 0 30 2.23858 30 5V25C30 27.7614 27.7614 30 25 30H5C2.23858 30 0 27.7614 0 25V5Z"/>
</mask>
<path d="M0 5C0 2.23858 2.23858 0 5 0H25C27.7614 0 30 2.23858 30 5V25C30 27.7614 27.7614 30 25 30H5C2.23858 30 0 27.7614 0 25V5Z" fill="#F2F2F2"/>
<path d="M0 0H30H0ZM31 25C31 28.3137 28.3137 31 25 31H6C2.68629 31 0 28.3137 0 25C0 27.2091 2.23858 29 5 29H25C27.2091 29 29 27.2091 29 25H31ZM0 30V0V30ZM25 0C28.3137 0 31 2.68629 31 6V25C31 28.3137 28.3137 31 25 31V29C27.2091 29 29 27.2091 29 25V5C29 2.23858 27.2091 0 25 0Z" fill="#BBBBBB" mask="url(#path-1-outside-1_2_2)"/>
<path d="M16.8 12.96C16.8 13.3733 16.6533 13.7267 16.36 14.02C16.0667 14.3133 15.7133 14.46 15.3 14.46C14.8867 14.46 14.5333 14.3133 14.24 14.02C13.9467 13.7267 13.8 13.3733 13.8 12.96C13.8 12.5467 13.9467 12.1933 14.24 11.9C14.5333 11.6067 14.8867 11.46 15.3 11.46C15.7133 11.46 16.0667 11.6067 16.36 11.9C16.6533 12.1933 16.8 12.5467 16.8 12.96ZM16.8 17.08C16.8 17.3333 16.7467 17.62 16.64 17.94C16.5467 18.26 16.44 18.5533 16.32 18.82C16.2133 19.0867 16.1333 19.28 16.08 19.4C15.9067 19.76 15.6333 19.94 15.26 19.94H14.82C14.5 19.94 14.2467 19.8 14.06 19.52C13.8733 19.24 13.8467 18.9467 13.98 18.64C14.0067 18.6 14.0267 18.56 14.04 18.52C14.0667 18.4667 14.0867 18.4133 14.1 18.36C14.1667 18.2267 14.1533 18.0733 14.06 17.9C13.8867 17.66 13.8 17.3867 13.8 17.08C13.8 16.6667 13.9467 16.3133 14.24 16.02C14.5333 15.7267 14.8867 15.58 15.3 15.58C15.7133 15.58 16.0667 15.7267 16.36 16.02C16.6533 16.3133 16.8 16.6667 16.8 17.08Z" fill="black"/>
</g>
<defs>
<clipPath id="clip0_2_2">
<rect width="31" height="31" fill="white"/>
</clipPath>
</defs>
</svg>
