<svg width="61" height="31" viewBox="0 0 61 31" fill="none" xmlns="http://www.w3.org/2000/svg">
<mask id="path-1-outside-1_4_7" maskUnits="userSpaceOnUse" x="0" y="0" width="61" height="31" fill="black">
<rect fill="white" width="61" height="31"/>
<path d="M0 5C0 2.23858 2.23858 0 5 0H55C57.7614 0 60 2.23858 60 5V25C60 27.7614 57.7614 30 55 30H5C2.23858 30 0 27.7614 0 25V5Z"/>
</mask>
<path d="M0 5C0 2.23858 2.23858 0 5 0H55C57.7614 0 60 2.23858 60 5V25C60 27.7614 57.7614 30 55 30H5C2.23858 30 0 27.7614 0 25V5Z" fill="#F2F2F2"/>
<path d="M0 0H60H0ZM61 25C61 28.3137 58.3137 31 55 31H6C2.68629 31 0 28.3137 0 25C0 27.2091 2.23858 29 5 29H55C57.2091 29 59 27.2091 59 25H61ZM0 30V0V30ZM55 0C58.3137 0 61 2.68629 61 6V25C61 28.3137 58.3137 31 55 31V29C57.2091 29 59 27.2091 59 25V5C59 2.23858 57.2091 0 55 0Z" fill="#BBBBBB" mask="url(#path-1-outside-1_4_7)"/>
<path d="M18.972 19.152C18.972 19.488 18.888 19.796 18.72 20.076C18.552 20.356 18.328 20.58 18.048 20.748C17.768 20.916 17.46 21 17.124 21H14.436C14.1 21 13.7873 20.916 13.498 20.748C13.218 20.58 12.994 20.356 12.826 20.076C12.658 19.796 12.574 19.488 12.574 19.152V18.732C12.574 18.5547 12.6347 18.4053 12.756 18.284C12.8867 18.1533 13.0407 18.088 13.218 18.088H13.61C13.778 18.088 13.9227 18.1533 14.044 18.284C14.1747 18.4053 14.24 18.5547 14.24 18.732V19.152C14.24 19.1987 14.2587 19.2453 14.296 19.292C14.3427 19.3293 14.3893 19.348 14.436 19.348H17.124C17.1707 19.348 17.2127 19.3293 17.25 19.292C17.2873 19.2453 17.306 19.1987 17.306 19.152V17.878C17.306 17.7753 17.2593 17.71 17.166 17.682L13.806 16.422C13.4327 16.2913 13.134 16.0627 12.91 15.736C12.686 15.4093 12.574 15.05 12.574 14.658V13.398C12.574 13.0527 12.658 12.74 12.826 12.46C12.994 12.18 13.218 11.956 13.498 11.788C13.7873 11.62 14.1 11.536 14.436 11.536H17.124C17.46 11.536 17.768 11.62 18.048 11.788C18.328 11.956 18.552 12.18 18.72 12.46C18.888 12.74 18.972 13.0527 18.972 13.398V13.776C18.972 13.9533 18.9067 14.1027 18.776 14.224C18.6547 14.3453 18.5053 14.406 18.328 14.406H17.95C17.7727 14.406 17.6187 14.3453 17.488 14.224C17.3667 14.1027 17.306 13.9533 17.306 13.776V13.398C17.306 13.2673 17.2453 13.202 17.124 13.202H14.436C14.3893 13.202 14.3427 13.2207 14.296 13.258C14.2587 13.2953 14.24 13.342 14.24 13.398V14.658C14.24 14.77 14.2867 14.84 14.38 14.868L17.754 16.128C18.118 16.2587 18.412 16.4873 18.636 16.814C18.86 17.1407 18.972 17.4953 18.972 17.878V19.152ZM26.3509 15.442C26.3509 15.778 26.2669 16.086 26.0989 16.366C25.9402 16.646 25.7209 16.87 25.4409 17.038C25.1609 17.206 24.8482 17.29 24.5029 17.29H21.9269C21.8149 17.29 21.7589 17.3507 21.7589 17.472V20.356C21.7589 20.5333 21.6935 20.6873 21.5629 20.818C21.4415 20.9393 21.2922 21 21.1149 21H20.7369C20.5595 21 20.4055 20.9393 20.2749 20.818C20.1535 20.6873 20.0929 20.5333 20.0929 20.356V12.18C20.0929 11.9933 20.1535 11.8393 20.2749 11.718C20.4055 11.5967 20.5595 11.536 20.7369 11.536H24.5029C24.8482 11.536 25.1609 11.62 25.4409 11.788C25.7209 11.956 25.9402 12.18 26.0989 12.46C26.2669 12.74 26.3509 13.0527 26.3509 13.398V15.442ZM24.6989 15.442V13.398C24.6989 13.2673 24.6335 13.202 24.5029 13.202H21.9269C21.8149 13.202 21.7589 13.2627 21.7589 13.384V15.442C21.7589 15.5633 21.8149 15.624 21.9269 15.624H24.5029C24.6335 15.624 24.6989 15.5633 24.6989 15.442ZM33.5929 20.16C33.6489 20.3747 33.6163 20.5707 33.4949 20.748C33.3736 20.916 33.2009 21 32.9769 21H32.5709C32.4403 21 32.3143 20.958 32.1929 20.874C32.0809 20.79 32.0016 20.6873 31.9549 20.566L31.4229 18.956C31.3856 18.8347 31.3063 18.774 31.1849 18.774H28.7909C28.6696 18.774 28.5903 18.8347 28.5529 18.956L28.0209 20.566C27.9743 20.6873 27.8949 20.79 27.7829 20.874C27.6709 20.958 27.5449 21 27.4049 21H26.9989C26.7749 21 26.6023 20.916 26.4809 20.748C26.3503 20.5613 26.3223 20.3653 26.3969 20.16L29.1129 11.97C29.1596 11.8393 29.2343 11.7367 29.3369 11.662C29.4489 11.578 29.5703 11.536 29.7009 11.536H30.2749C30.4056 11.536 30.5269 11.578 30.6389 11.662C30.7509 11.7367 30.8256 11.8393 30.8629 11.97L33.5929 20.16ZM30.7649 16.94L30.0649 14.798C30.0183 14.7327 29.9669 14.7327 29.9109 14.798L29.2109 16.94C29.1923 16.9867 29.1969 17.0287 29.2249 17.066C29.2529 17.1033 29.2903 17.122 29.3369 17.122H30.6389C30.6856 17.122 30.7229 17.1033 30.7509 17.066C30.7789 17.0287 30.7836 16.9867 30.7649 16.94ZM40.9658 19.152C40.9658 19.488 40.8818 19.796 40.7138 20.076C40.5458 20.356 40.3218 20.58 40.0418 20.748C39.7618 20.916 39.4538 21 39.1178 21H36.5978C36.2618 21 35.9491 20.916 35.6598 20.748C35.3798 20.58 35.1558 20.356 34.9878 20.076C34.8198 19.796 34.7358 19.488 34.7358 19.152V13.398C34.7358 13.0527 34.8198 12.74 34.9878 12.46C35.1558 12.18 35.3798 11.956 35.6598 11.788C35.9491 11.62 36.2618 11.536 36.5978 11.536H39.1178C39.4538 11.536 39.7618 11.62 40.0418 11.788C40.3218 11.956 40.5458 12.18 40.7138 12.46C40.8818 12.74 40.9658 13.0527 40.9658 13.398V13.776C40.9658 13.9533 40.9051 14.1027 40.7838 14.224C40.6624 14.3453 40.5084 14.406 40.3218 14.406H39.9438C39.7664 14.406 39.6124 14.3453 39.4818 14.224C39.3604 14.1027 39.2998 13.9533 39.2998 13.776V13.398C39.2998 13.2673 39.2391 13.202 39.1178 13.202H36.5978C36.4764 13.202 36.4158 13.2673 36.4158 13.398V19.152C36.4158 19.1987 36.4344 19.2453 36.4718 19.292C36.5091 19.3293 36.5511 19.348 36.5978 19.348H39.1178C39.1644 19.348 39.2064 19.3293 39.2438 19.292C39.2811 19.2453 39.2998 19.1987 39.2998 19.152V18.732C39.2998 18.5547 39.3604 18.4053 39.4818 18.284C39.6124 18.1533 39.7664 18.088 39.9438 18.088H40.3218C40.5084 18.088 40.6624 18.1533 40.7838 18.284C40.9051 18.4053 40.9658 18.5547 40.9658 18.732V19.152ZM48.1809 20.356C48.1809 20.5333 48.1156 20.6873 47.9849 20.818C47.8636 20.9393 47.7189 21 47.5509 21H42.7349C42.5669 21 42.4176 20.9393 42.2869 20.818C42.1656 20.6873 42.1049 20.5333 42.1049 20.356V12.18C42.1049 11.9933 42.1656 11.8393 42.2869 11.718C42.4176 11.5967 42.5669 11.536 42.7349 11.536H47.5509C47.7189 11.536 47.8636 11.5967 47.9849 11.718C48.1156 11.8393 48.1809 11.9933 48.1809 12.18V12.558C48.1809 12.7353 48.1156 12.8893 47.9849 13.02C47.8636 13.1413 47.7189 13.202 47.5509 13.202H43.9389C43.8269 13.202 43.7709 13.2627 43.7709 13.384V15.246C43.7709 15.3767 43.8269 15.442 43.9389 15.442H47.0469C47.2336 15.442 47.3876 15.5027 47.5089 15.624C47.6303 15.7453 47.6909 15.8947 47.6909 16.072V16.464C47.6909 16.6413 47.6303 16.7953 47.5089 16.926C47.3876 17.0473 47.2336 17.108 47.0469 17.108H43.9389C43.8269 17.108 43.7709 17.164 43.7709 17.276V19.166C43.7709 19.2873 43.8269 19.348 43.9389 19.348H47.5509C47.7189 19.348 47.8636 19.4087 47.9849 19.53C48.1156 19.6513 48.1809 19.8053 48.1809 19.992V20.356Z" fill="black"/>
</svg>
