<svg width="31" height="31" viewBox="0 0 31 31" fill="none" xmlns="http://www.w3.org/2000/svg">
<mask id="path-1-outside-1_2_2" maskUnits="userSpaceOnUse" x="0" y="0" width="31" height="31" fill="black">
<rect fill="white" width="31" height="31"/>
<path d="M0 5C0 2.23858 2.23858 0 5 0H25C27.7614 0 30 2.23858 30 5V25C30 27.7614 27.7614 30 25 30H5C2.23858 30 0 27.7614 0 25V5Z"/>
</mask>
<path d="M0 5C0 2.23858 2.23858 0 5 0H25C27.7614 0 30 2.23858 30 5V25C30 27.7614 27.7614 30 25 30H5C2.23858 30 0 27.7614 0 25V5Z" fill="#F2F2F2"/>
<path d="M0 0H30H0ZM31 25C31 28.3137 28.3137 31 25 31H6C2.68629 31 0 28.3137 0 25C0 27.2091 2.23858 29 5 29H25C27.2091 29 29 27.2091 29 25H31ZM0 30V0V30ZM25 0C28.3137 0 31 2.68629 31 6V25C31 28.3137 28.3137 31 25 31V29C27.2091 29 29 27.2091 29 25V5C29 2.23858 27.2091 0 25 0Z" fill="#BBBBBB" mask="url(#path-1-outside-1_2_2)"/>
<path d="M18.76 19.888C18.76 20.272 18.664 20.624 18.472 20.944C18.28 21.264 18.024 21.52 17.704 21.712C17.384 21.904 17.032 22 16.648 22H13.768C13.384 22 13.0267 21.904 12.696 21.712C12.376 21.52 12.12 21.264 11.928 20.944C11.736 20.624 11.64 20.272 11.64 19.888V11.92C11.64 11.7067 11.7093 11.5307 11.848 11.392C11.9973 11.2533 12.1733 11.184 12.376 11.184H12.824C13.0267 11.184 13.1973 11.2533 13.336 11.392C13.4853 11.5307 13.56 11.7067 13.56 11.92V19.888C13.56 19.9413 13.5813 19.9947 13.624 20.048C13.6667 20.0907 13.7147 20.112 13.768 20.112H16.648C16.7013 20.112 16.7493 20.0907 16.792 20.048C16.8347 19.9947 16.856 19.9413 16.856 19.888V11.92C16.856 11.7067 16.9253 11.5307 17.064 11.392C17.2133 11.2533 17.3893 11.184 17.592 11.184H18.024C18.2373 11.184 18.4133 11.2533 18.552 11.392C18.6907 11.5307 18.76 11.7067 18.76 11.92V19.888Z" fill="black"/>
</svg>
