<svg width="31" height="31" viewBox="0 0 31 31" fill="none" xmlns="http://www.w3.org/2000/svg">
<mask id="path-1-outside-1_2_2" maskUnits="userSpaceOnUse" x="0" y="0" width="31" height="31" fill="black">
<rect fill="white" width="31" height="31"/>
<path d="M0 5C0 2.23858 2.23858 0 5 0H25C27.7614 0 30 2.23858 30 5V25C30 27.7614 27.7614 30 25 30H5C2.23858 30 0 27.7614 0 25V5Z"/>
</mask>
<path d="M0 5C0 2.23858 2.23858 0 5 0H25C27.7614 0 30 2.23858 30 5V25C30 27.7614 27.7614 30 25 30H5C2.23858 30 0 27.7614 0 25V5Z" fill="#F2F2F2"/>
<path d="M0 0H30H0ZM31 25C31 28.3137 28.3137 31 25 31H6C2.68629 31 0 28.3137 0 25C0 27.2091 2.23858 29 5 29H25C27.2091 29 29 27.2091 29 25H31ZM0 30V0V30ZM25 0C28.3137 0 31 2.68629 31 6V25C31 28.3137 28.3137 31 25 31V29C27.2091 29 29 27.2091 29 25V5C29 2.23858 27.2091 0 25 0Z" fill="#BBBBBB" mask="url(#path-1-outside-1_2_2)"/>
<path d="M20.232 12.08L18.104 21.424C18.0613 21.5947 17.9707 21.7333 17.832 21.84C17.704 21.9467 17.5547 22 17.384 22H16.808C16.648 22 16.504 21.952 16.376 21.856C16.248 21.76 16.1573 21.6373 16.104 21.488L16.04 21.28C15.9013 20.8427 15.7413 20.336 15.56 19.76C15.3893 19.184 15.208 18.5813 15.016 17.952C15.0053 17.9093 14.9787 17.888 14.936 17.888C14.904 17.888 14.8827 17.9093 14.872 17.952C14.7227 18.4213 14.5787 18.8907 14.44 19.36C14.3013 19.8187 14.1733 20.2347 14.056 20.608C13.9493 20.9813 13.8587 21.2747 13.784 21.488C13.7413 21.6267 13.6507 21.7493 13.512 21.856C13.384 21.952 13.24 22 13.08 22H12.488C12.3173 22 12.1627 21.9467 12.024 21.84C11.896 21.7333 11.816 21.5947 11.784 21.424L9.656 12.08C9.61333 11.8667 9.656 11.6587 9.784 11.456C9.86933 11.3707 9.96 11.3067 10.056 11.264C10.152 11.2107 10.2587 11.184 10.376 11.184H10.824C10.9947 11.184 11.144 11.2373 11.272 11.344C11.4107 11.4507 11.5013 11.584 11.544 11.744L12.84 17.536C12.8507 17.568 12.8773 17.584 12.92 17.584C12.9627 17.584 12.9947 17.568 13.016 17.536C13.016 17.536 13.048 17.4187 13.112 17.184C13.1867 16.9493 13.2827 16.64 13.4 16.256C13.5173 15.8613 13.6507 15.424 13.8 14.944C13.9493 14.464 14.0987 13.9787 14.248 13.488C14.3013 13.3387 14.3867 13.216 14.504 13.12C14.6213 13.0133 14.7653 12.96 14.936 12.96C15.1173 12.96 15.2667 13.0133 15.384 13.12C15.512 13.216 15.5973 13.344 15.64 13.504L16.872 17.536C16.8933 17.568 16.9253 17.584 16.968 17.584C17.0107 17.584 17.0373 17.568 17.048 17.536C17.1867 16.9067 17.3253 16.2827 17.464 15.664C17.6027 15.0453 17.7307 14.4693 17.848 13.936C17.976 13.4027 18.0827 12.944 18.168 12.56C18.2533 12.176 18.312 11.904 18.344 11.744C18.3867 11.584 18.472 11.4507 18.6 11.344C18.7387 11.2373 18.8933 11.184 19.064 11.184H19.512C19.6293 11.184 19.736 11.2107 19.832 11.264C19.928 11.3067 20.0133 11.3707 20.088 11.456C20.2373 11.648 20.2853 11.856 20.232 12.08Z" fill="black"/>
</svg>
